<svg width="210" height="73" viewBox="0 0 210 73" fill="none" xmlns="http://www.w3.org/2000/svg">
<path d="M209.622 11.4581H201.286V61.0117H209.622V11.4581Z" fill="black"/>
<path d="M209.622 11.4581H201.286V61.0117H209.622V11.4581Z" fill="black"/>
<path d="M177.876 29.8547C183.665 29.8547 186.444 33.0965 186.753 39.3486H168.151C168.923 32.8649 172.242 29.8547 177.876 29.8547ZM178.108 61.5782C187.833 61.5782 192.387 57.1014 194.085 50.5406L186.984 48.5337C185.981 52.0071 183.974 54.7858 178.185 54.7858C172.01 54.7858 168.691 51.4668 168.074 44.906H194.24C194.394 43.0535 194.394 41.4326 194.394 40.0433C194.394 30.0862 189.068 23.4482 178.108 23.4482C166.761 23.4482 159.815 30.7037 159.815 42.9763C159.815 55.0946 166.993 61.5782 178.108 61.5782Z" fill="black"/>
<path d="M149.706 61.0773H159.036V60.2418L147.111 42.4684L158.728 26.2142V25.3787H150.015L141.649 37.0253H141.007L132.821 25.3787H123.414V26.2142L135.224 42.4684L123.337 60.2418V61.0773H132.435L136.509 54.7479L141.007 47.1525H141.649L146.147 54.7479L149.706 61.0773Z" fill="black"/>
<path d="M110.387 61.077H119.804L102.591 14.7653H90.7046L73.492 61.077H82.6L86.6137 49.2675H106.373L110.387 61.077ZM90.8589 36.9949C92.4798 32.2865 94.1779 27.0379 95.5673 22.4067H97.497C98.8863 27.0379 100.507 32.2865 102.128 36.9949L104.058 42.7067H88.9293L90.8589 36.9949Z" fill="black"/>
<path fill-rule="evenodd" clip-rule="evenodd" d="M20.4844 4.00257L4.48182 35.8504L36.8465 68.3355L53.0468 36.5248L48.0688 31.553L49.7214 28.3029L55.8984 34.4722C56.7224 35.2952 56.9225 36.5553 56.394 37.5931L39.448 70.8681C38.6184 72.497 36.4398 72.8402 35.1496 71.5452L1.62848 37.8993C0.812015 37.0798 0.611626 35.8297 1.131 34.7961L17.8707 1.48119C18.6929 -0.155153 20.8752 -0.507773 22.1709 0.786351L44.4089 22.9969L42.7563 26.247L20.4844 4.00257ZM44.1752 27.6642L46.6499 30.1359L48.3025 26.8857L45.8278 24.414L44.1752 27.6642Z" fill="black"/>
<path fill-rule="evenodd" clip-rule="evenodd" d="M51.2309 13.732L42.283 18.1894L39.6902 15.6072L51.8024 9.57346C54.1218 8.41806 56.5717 10.8911 55.3946 13.1995L38.9923 45.3673C38.7331 45.8756 38.3189 46.2882 37.8095 46.5454L24.5386 53.2467L21.9506 50.6691L36.019 43.5651L51.2309 13.732ZM20.1573 51.5747L16.8957 53.2216L19.4838 55.7992L22.7453 54.1523L20.1573 51.5747ZM6.27536 58.5845L15.1024 54.1272L17.6905 56.7048L5.72995 62.7444C3.41806 63.9118 0.95519 61.455 2.11686 59.1402L8.15444 47.1096L10.7332 49.7016L6.27536 58.5845ZM11.6352 47.9043L13.24 44.7066L10.6533 42.1303L9.05643 45.3123L11.6352 47.9043ZM21.3026 28.6408L14.1406 42.912L11.5539 40.3357L18.3201 26.8531C18.5809 26.3334 19.0033 25.9124 19.5237 25.6531L32.8947 18.9923L35.4875 21.5746L21.3026 28.6408ZM37.289 20.6772L40.4815 19.0869L37.8887 16.5046L34.6962 18.0949L37.289 20.6772Z" fill="black"/>
</svg>