<svg width="282" height="282" viewBox="0 0 282 282" fill="none" xmlns="http://www.w3.org/2000/svg">
<circle cx="143" cy="139" r="139" fill="white"/>
<path d="M86.6929 61.1567L236.134 163.194L199.175 217.829L49.7344 114.988L86.6929 61.1567Z" fill="url(#paint0_linear_572_3846)"/>
<path d="M236.137 163.194C223.282 181.673 179.896 174.442 138.92 145.518C97.141 117.397 74.6445 79.6355 86.6962 61.1563C99.5513 42.677 142.937 49.908 183.913 78.8321C225.692 106.149 248.189 144.715 236.137 163.194Z" fill="url(#paint1_linear_572_3846)"/>
<path d="M199.177 217.026C186.322 235.505 142.936 228.274 101.96 199.35C60.9845 170.426 37.6845 133.467 50.5397 114.185C63.3948 95.7053 106.781 102.936 147.757 131.86C188.732 160.784 211.229 198.546 199.177 217.026Z" fill="url(#paint2_linear_572_3846)"/>
<path d="M236.135 163.194L199.177 217.828C186.322 236.308 142.936 228.273 101.96 200.152C93.9254 194.528 86.6944 188.904 79.4634 182.477C85.0875 181.673 92.3185 178.459 99.5495 170.425C112.405 156.766 118.832 153.553 124.456 154.356C130.08 154.356 136.508 159.98 146.953 173.639C157.398 187.297 171.86 191.315 180.698 184.084C181.501 183.28 182.304 183.28 183.108 182.477C190.339 176.853 192.749 174.442 206.408 148.732C209.622 142.304 220.87 131.86 236.135 136.68C240.153 147.125 240.153 155.963 236.135 163.194Z" fill="#0E0F23"/>
<path fill-rule="evenodd" clip-rule="evenodd" d="M230.513 159.979C219.265 176.048 179.896 168.013 142.134 141.499C103.568 114.986 81.0719 81.2409 92.3202 65.172C103.568 49.103 142.937 57.1375 180.699 83.6512C218.461 110.165 240.958 143.91 230.513 159.979ZM195.161 135.875C189.537 143.91 170.254 139.892 150.972 127.037C132.492 114.182 121.244 97.3098 126.868 89.2753C132.492 81.2409 151.775 85.2581 171.058 98.1132C189.537 110.968 200.785 127.841 195.161 135.875Z" fill="white"/>
<path d="M83.4814 79.6372C83.4814 78.8338 82.6779 78.0303 81.8745 78.8338C81.071 79.6372 80.2676 79.6372 80.2676 80.4407C81.071 82.851 81.8745 84.4579 81.8745 86.0648C81.8745 86.8682 82.6779 87.6717 83.4814 86.8682C84.2848 86.8682 85.0883 86.0648 84.2848 85.2613C84.2848 83.6545 84.2848 82.0476 83.4814 79.6372Z" fill="white"/>
<path d="M87.4997 92.4888C87.4997 91.6853 86.6962 90.8819 85.8928 91.6853C85.0894 92.4888 85.0894 92.4888 85.0894 93.2922C93.9273 113.378 112.407 135.071 136.51 151.14C137.313 151.944 138.117 151.14 138.92 151.14C139.724 150.337 138.92 149.533 138.92 148.73C114.013 132.661 96.3376 111.771 87.4997 92.4888Z" fill="white"/>
<path d="M184.714 171.226C183.91 171.226 183.107 171.226 183.107 172.03C183.107 172.833 183.107 173.636 183.91 173.636C186.321 174.44 189.535 175.243 191.945 176.047C192.748 176.047 193.552 176.047 193.552 175.243C193.552 174.44 193.552 173.636 192.748 173.636C190.338 172.833 187.124 172.03 184.714 171.226Z" fill="white"/>
<path d="M199.179 174.443C198.375 174.443 197.572 175.247 197.572 176.05C197.572 176.854 198.375 177.657 199.179 177.657C205.606 178.461 212.837 179.264 218.461 178.461C219.265 178.461 220.068 177.657 220.068 176.854C220.068 176.05 219.265 175.247 218.461 175.247C212.034 176.05 205.606 175.247 199.179 174.443Z" fill="white"/>
<defs>
<linearGradient id="paint0_linear_572_3846" x1="115.972" y1="46.6489" x2="145.608" y2="148.415" gradientUnits="userSpaceOnUse">
<stop stop-color="#03B8FF"/>
<stop offset="1" stop-color="#FA52A0"/>
</linearGradient>
<linearGradient id="paint1_linear_572_3846" x1="140.381" y1="39.5403" x2="170.018" y2="141.307" gradientUnits="userSpaceOnUse">
<stop stop-color="#03B8FF"/>
<stop offset="1" stop-color="#FA52A0"/>
</linearGradient>
<linearGradient id="paint2_linear_572_3846" x1="91.644" y1="53.7341" x2="121.281" y2="155.501" gradientUnits="userSpaceOnUse">
<stop stop-color="#03B8FF"/>
<stop offset="1" stop-color="#FA52A0"/>
</linearGradient>
</defs>
</svg>
