<svg width="7" height="7" viewBox="0 0 7 7" fill="none" xmlns="http://www.w3.org/2000/svg">
<path d="M0.295846 4.02879L0.754603 4.03165C0.823202 4.38465 0.958971 4.72764 1.16477 5.0392L0.838923 5.36218C0.721732 5.47795 0.721732 5.66516 0.836064 5.78235L1.18764 6.13821C1.3034 6.2554 1.49062 6.2554 1.60781 6.14107L1.93365 5.81808C2.24235 6.02674 2.58392 6.16823 2.93692 6.23968L2.93406 6.69844C2.93263 6.86279 3.06554 6.9957 3.22989 6.99713L3.73009 6.99999C3.89445 7.00142 4.02736 6.86851 4.02879 6.70416L4.03165 6.2454C4.38465 6.1768 4.72764 6.04103 5.0392 5.83523L5.36218 6.16108C5.47795 6.27827 5.66516 6.27827 5.78235 6.16394L6.13821 5.81237C6.2554 5.69661 6.2554 5.50939 6.14107 5.3922L5.81808 5.06635C6.02674 4.75765 6.16823 4.41609 6.23968 4.06309L6.69844 4.06594C6.86279 4.06737 6.9957 3.93446 6.99713 3.77011L6.99999 3.26991C7.00142 3.10556 6.86851 2.97264 6.70416 2.97122L6.2454 2.96836C6.1768 2.61536 6.04103 2.27236 5.83523 1.96081L6.16108 1.63782C6.27827 1.52206 6.27827 1.33484 6.16394 1.21765L5.81237 0.861789C5.69661 0.744599 5.50939 0.744599 5.3922 0.858931L5.06635 1.18192C4.75765 0.973263 4.41609 0.831777 4.06309 0.760319L4.06594 0.301562C4.06737 0.13721 3.93446 0.00429887 3.77011 0.00286972L3.26991 1.14183e-05C3.10556 -0.00141773 2.97264 0.131493 2.97122 0.295846L2.96693 0.754603C2.6125 0.823202 2.2695 0.958971 1.95938 1.16477L1.63639 0.838923C1.52063 0.721732 1.33341 0.721732 1.21622 0.836064L0.861789 1.18764C0.744599 1.3034 0.744599 1.49062 0.858931 1.60781L1.18192 1.93365C0.973263 2.24235 0.831777 2.58392 0.760319 2.93692L0.301562 2.93406C0.13721 2.93263 0.00429887 3.06554 0.00286972 3.22989L1.14183e-05 3.73009C-0.00141773 3.89302 0.131493 4.02736 0.295846 4.02879ZM2.56248 2.55247C3.08555 2.03512 3.92732 2.03941 4.44467 2.56248C4.96202 3.08555 4.95773 3.92732 4.43467 4.44467C3.9116 4.96202 3.06983 4.95773 2.55247 4.43467C2.03512 3.9116 2.03941 3.06983 2.56248 2.55247Z" fill="#60C582"/>
</svg>